<?xml version="1.0" encoding="UTF-8" standalone="no"?>
<svg width="177px" height="177px" viewBox="0 0 177 177" version="1.1" xmlns="http://www.w3.org/2000/svg" xmlns:xlink="http://www.w3.org/1999/xlink">
    <!-- Generator: Sketch 42 (36781) - http://www.bohemiancoding.com/sketch -->
    <title>off</title>
    <desc>Created with Sketch.</desc>
    <defs></defs>
    <g id="Page-1" stroke="none" stroke-width="1" fill="none" fill-rule="evenodd">
        <g id="Desktop-HD" transform="translate(-817.000000, -818.000000)">
            <g id="off" transform="translate(817.000000, 818.000000)">
                <circle id="Oval-2" fill="#CD1818" opacity="0.699918377" cx="88.5" cy="88.5" r="88.5"></circle>
                <g id="delete" transform="translate(39.000000, 39.000000)" fill-rule="nonzero" fill="#FFFFFF">
                    <g id="Capa_1">
                        <path d="M96.4352436,19.6593123 L66.1936963,49.9040115 L96.4352436,80.1472779 C100.933524,84.6472779 100.933524,91.9366762 96.4352436,96.4366762 C94.1876791,98.6842407 91.2409742,99.8088825 88.295702,99.8088825 C85.3455587,99.8088825 82.3985673,98.6859599 80.1527221,96.4366762 L49.9045845,66.1899713 L19.6587393,96.4363897 C17.4114613,98.6839542 14.4644699,99.808596 11.5166189,99.808596 C8.56962751,99.808596 5.62464183,98.6856734 3.37535817,96.4363897 C-1.12292264,91.9383954 -1.12292264,84.6487106 3.37535817,80.1469914 L33.6160458,49.9037249 L3.37363897,19.6593123 C-1.12464183,15.1610315 -1.12464183,7.86991404 3.37363897,3.37163324 C7.87106017,-1.12320917 15.1578797,-1.12320917 19.6570201,3.37163324 L49.904298,33.6163324 L80.1492837,3.37163324 C84.6492837,-1.12320917 91.9369628,-1.12320917 96.4335244,3.37163324 C100.933524,7.86991404 100.933524,15.1610315 96.4352436,19.6593123 Z" id="Shape"></path>
                    </g>
                </g>
            </g>
        </g>
    </g>
</svg>